# xmcd
#
# Track frame offsets: 
#        182
#        9332
#        22872
#        33860
#        46472
#        56012
#        65720
#        76790
#        88042
#        98685
#        109262
#
# Disc length: 1571 seconds
#
# Revision: 1
# Processed by: cddbd v1.5PL3 Copyright (c) Steve Scherf et al.
# Submitted via: ExactAudioCopy v0.95a4
#
DISCID=7c06210b
DTITLE=Buck Owens - All-Time Greatest Hits Volume 2
DYEAR=1990
DGENRE=
TTITLE0=Love's Gonna Live Here 
TTITLE1=Tall Dark Stranger
TTITLE2=Ruby (Are You Mad At Your Man)
TTITLE3=Your Tender Loving Care
TTITLE4=Second Fiddle
TTITLE5=Johnny B. Goode
TTITLE6=Above And Beyond
TTITLE7=Open Up Your Heart
TTITLE8=The Kansas City Song
TTITLE9=Where Does The Good Times Go
TTITLE10=Gonna Have Love
EXTD=
EXTT0=
EXTT1=
EXTT2=
EXTT3=
EXTT4=
EXTT5=
EXTT6=
EXTT7=
EXTT8=
EXTT9=
EXTT10=
PLAYORDER=
